<mxfile host="app.diagrams.net" modified="2022-07-25T09:44:53.493Z" agent="5.0 (Windows NT 10.0; Win64; x64) AppleWebKit/537.36 (KHTML, like Gecko) Chrome/103.0.0.0 Safari/537.36" etag="He7AxadNYNsKmNyDu0Q7" version="20.1.3" type="github">
  <diagram id="897C7ZxnjxDklEcfM_nH" name="第 1 页">
    <mxGraphModel dx="1422" dy="762" grid="1" gridSize="10" guides="1" tooltips="1" connect="1" arrows="1" fold="1" page="1" pageScale="1" pageWidth="827" pageHeight="1169" math="0" shadow="0">
      <root>
        <mxCell id="0" />
        <mxCell id="1" parent="0" />
        <mxCell id="AHRhEWRI0PKgLRRRAJqj-6" value="金柏河互联网医院" style="rounded=1;whiteSpace=wrap;html=1;fontSize=23;fillColor=#8DD990;" vertex="1" parent="1">
          <mxGeometry x="414" y="270" width="240" height="150" as="geometry" />
        </mxCell>
        <mxCell id="AHRhEWRI0PKgLRRRAJqj-8" value="" style="shape=image;html=1;verticalAlign=top;verticalLabelPosition=bottom;labelBackgroundColor=#ffffff;imageAspect=0;aspect=fixed;image=https://cdn3.iconfinder.com/data/icons/clinical-3/96/medicine_1-128.png;fontSize=23;fillColor=#8DD990;" vertex="1" parent="1">
          <mxGeometry x="110" y="281" width="128" height="128" as="geometry" />
        </mxCell>
        <mxCell id="AHRhEWRI0PKgLRRRAJqj-11" value="医药企业" style="text;html=1;strokeColor=none;fillColor=none;align=center;verticalAlign=middle;whiteSpace=wrap;rounded=0;fontSize=23;" vertex="1" parent="1">
          <mxGeometry x="132" y="240" width="106" height="30" as="geometry" />
        </mxCell>
        <mxCell id="AHRhEWRI0PKgLRRRAJqj-14" value="&lt;font style=&quot;font-size: 16px;&quot;&gt;助力医药企业高效&lt;br&gt;完成数字化转型升级&lt;/font&gt;" style="text;html=1;strokeColor=none;fillColor=none;align=center;verticalAlign=middle;whiteSpace=wrap;rounded=0;fontSize=23;" vertex="1" parent="1">
          <mxGeometry x="210" y="290" width="230" height="40" as="geometry" />
        </mxCell>
        <mxCell id="AHRhEWRI0PKgLRRRAJqj-16" value="" style="shape=image;html=1;verticalAlign=top;verticalLabelPosition=bottom;labelBackgroundColor=#ffffff;imageAspect=0;aspect=fixed;image=https://cdn2.iconfinder.com/data/icons/coronavirus-innovicons-color/128/call-doctor-coronavirus-smartphone-128.png;fontSize=16;fillColor=#8DD990;" vertex="1" parent="1">
          <mxGeometry x="860" y="281" width="128" height="128" as="geometry" />
        </mxCell>
        <mxCell id="AHRhEWRI0PKgLRRRAJqj-18" value="&lt;span style=&quot;font-size: 16px;&quot;&gt;提升医疗从业者个人价值&lt;br&gt;&lt;/span&gt;&lt;font style=&quot;font-size: 16px;&quot;&gt;释放生产力&lt;/font&gt;" style="text;html=1;strokeColor=none;fillColor=none;align=center;verticalAlign=middle;whiteSpace=wrap;rounded=0;fontSize=23;" vertex="1" parent="1">
          <mxGeometry x="660" y="300" width="200" height="30" as="geometry" />
        </mxCell>
        <mxCell id="AHRhEWRI0PKgLRRRAJqj-21" value="" style="shape=doubleArrow;whiteSpace=wrap;html=1;fontSize=16;fillColor=#dae8fc;strokeColor=#6c8ebf;" vertex="1" parent="1">
          <mxGeometry x="240" y="350" width="170" height="20" as="geometry" />
        </mxCell>
        <mxCell id="AHRhEWRI0PKgLRRRAJqj-22" value="" style="shape=doubleArrow;whiteSpace=wrap;html=1;fontSize=16;fillColor=#dae8fc;strokeColor=#6c8ebf;" vertex="1" parent="1">
          <mxGeometry x="660" y="350" width="190" height="20" as="geometry" />
        </mxCell>
      </root>
    </mxGraphModel>
  </diagram>
</mxfile>
